<svg width="557" height="1130" viewBox="0 0 557 1130" fill="none" xmlns="http://www.w3.org/2000/svg">
<path fill-rule="evenodd" clip-rule="evenodd" d="M13.2713 46.0441C4.08009 64.0829 4.08009 87.6971 4.08009 134.925V215.74H1.97188C1.19566 215.74 0.566406 216.369 0.566406 217.145V255.093C0.566406 255.869 1.19566 256.499 1.97188 256.499H4.08009V289.527H1.97188C1.19566 289.527 0.566406 290.157 0.566406 290.933V366.828C0.566406 367.604 1.19566 368.234 1.97188 368.234H4.08009V385.802H1.97188C1.19566 385.802 0.566406 386.431 0.566406 387.208V463.103C0.566406 463.879 1.19566 464.509 1.97188 464.509H4.08009V995.074C4.08009 1042.3 4.08009 1065.92 13.2713 1083.96C21.3562 1099.82 34.2568 1112.72 50.1242 1120.81C68.163 1130 91.7771 1130 139.005 1130H417.992C465.22 1130 488.834 1130 506.873 1120.81C522.74 1112.72 535.641 1099.82 543.726 1083.96C552.917 1065.92 552.917 1042.3 552.917 995.074V437.805H555.025C555.801 437.805 556.431 437.175 556.431 436.399V316.934C556.431 316.158 555.801 315.529 555.025 315.529H552.917V134.925C552.917 87.697 552.917 64.0829 543.726 46.0441C535.641 30.1767 522.74 17.2761 506.873 9.19124C488.834 0 465.22 0 417.992 0H139.005C91.7771 0 68.163 0 50.1242 9.19124C34.2568 17.2761 21.3562 30.1767 13.2713 46.0441ZM29.3807 1002.8V126.492C29.3807 91.0712 29.3807 73.3606 36.2742 59.8315C42.3378 47.9309 52.0133 38.2555 63.9138 32.1918C77.4429 25.2984 95.1535 25.2984 130.575 25.2984H153.218C154.382 25.2984 154.963 25.2984 155.429 25.4679C156.21 25.7521 156.825 26.3672 157.109 27.148C157.279 27.6137 157.279 28.1954 157.279 29.3587C157.279 38.6651 157.279 43.3183 158.635 47.0443C160.908 53.2906 165.829 58.2111 172.075 60.4845C175.801 61.8407 180.454 61.8407 189.761 61.8407H367.943C377.25 61.8407 381.903 61.8407 385.629 60.4845C391.875 58.2111 396.796 53.2906 399.069 47.0443C400.425 43.3184 400.425 38.6642 400.425 29.3581C400.425 28.1952 400.425 27.6136 400.595 27.148C400.879 26.3672 401.494 25.7521 402.275 25.4679C402.741 25.2984 403.322 25.2984 404.486 25.2984H427.129C462.551 25.2984 480.261 25.2984 493.79 32.1918C505.691 38.2555 515.366 47.9309 521.43 59.8315C528.323 73.3606 528.323 91.0712 528.323 126.492V1002.8C528.323 1038.23 528.323 1055.94 521.43 1069.47C515.366 1081.37 505.691 1091.04 493.79 1097.1C480.261 1104 462.551 1104 427.129 1104H130.575C95.1535 1104 77.4429 1104 63.9138 1097.1C52.0133 1091.04 42.3378 1081.37 36.2742 1069.47C29.3807 1055.94 29.3807 1038.23 29.3807 1002.8Z" fill="#ADAFA4"/>
<g style="mix-blend-mode:multiply">
<mask id="mask0_145_58" style="mask-type:alpha" maskUnits="userSpaceOnUse" x="4" y="0" width="549" height="1130">
<path d="M4.08203 134.926C4.08203 87.6973 4.08203 64.0831 13.2733 46.0443C21.3581 30.1769 34.2587 17.2763 50.1261 9.19148C68.1649 0.000244141 91.7791 0.000244141 139.007 0.000244141H417.994C465.222 0.000244141 488.836 0.000244141 506.875 9.19148C522.742 17.2763 535.643 30.1769 543.728 46.0443C552.919 64.0831 552.919 87.6973 552.919 134.926V995.075C552.919 1042.3 552.919 1065.92 543.728 1083.96C535.643 1099.82 522.742 1112.72 506.875 1120.81C488.836 1130 465.222 1130 417.994 1130H139.007C91.7791 1130 68.1649 1130 50.1261 1120.81C34.2587 1112.72 21.3581 1099.82 13.2733 1083.96C4.08203 1065.92 4.08203 1042.3 4.08203 995.075V134.926Z" fill="black"/>
</mask>
<g mask="url(#mask0_145_58)">
<rect x="0.568359" y="123.682" width="11.9465" height="9.83831" fill="url(#paint0_linear_145_58)"/>
<rect x="0.568359" y="996.48" width="11.9465" height="9.83831" fill="url(#paint1_linear_145_58)"/>
<rect x="544.488" y="123.682" width="11.9465" height="9.83831" fill="url(#paint2_linear_145_58)"/>
<rect x="544.488" y="996.48" width="11.9465" height="9.83831" fill="url(#paint3_linear_145_58)"/>
<rect x="429.234" y="-3.51343" width="11.9465" height="9.83831" transform="rotate(90 429.234 -3.51343)" fill="url(#paint4_linear_145_58)"/>
<rect x="137.602" y="1120.86" width="11.9465" height="9.83831" transform="rotate(90 137.602 1120.86)" fill="url(#paint5_linear_145_58)"/>
</g>
<mask id="path-9-inside-1_145_58" fill="white">
<path fill-rule="evenodd" clip-rule="evenodd" d="M18.2816 48.5963C9.70312 65.4325 9.70312 87.4724 9.70312 131.552V998.447C9.70312 1042.53 9.70312 1064.57 18.2816 1081.4C25.8275 1096.21 37.868 1108.25 52.6776 1115.8C69.5138 1124.38 91.5537 1124.38 135.633 1124.38H421.366C465.446 1124.38 487.486 1124.38 504.322 1115.8C519.131 1108.25 531.172 1096.21 538.718 1081.4C547.296 1064.57 547.296 1042.53 547.296 998.447V131.552C547.296 87.4724 547.296 65.4325 538.718 48.5963C531.172 33.7867 519.131 21.7462 504.322 14.2003C487.486 5.62183 465.446 5.62183 421.366 5.62183H135.633C91.5537 5.62183 69.5138 5.62183 52.6776 14.2003C37.868 21.7462 25.8275 33.7867 18.2816 48.5963ZM29.383 1002.8V126.492C29.383 91.0712 29.383 73.3606 36.2765 59.8315C42.3401 47.9309 52.0155 38.2555 63.9161 32.1918C77.4452 25.2984 95.1558 25.2984 130.577 25.2984H153.221C154.384 25.2984 154.966 25.2984 155.431 25.4679C156.212 25.7521 156.827 26.3672 157.111 27.1479C157.281 27.6137 157.281 28.1954 157.281 29.3587C157.281 38.6651 157.281 43.3183 158.637 47.0443C160.911 53.2906 165.831 58.2111 172.077 60.4845C175.803 61.8407 180.457 61.8407 189.763 61.8407H367.946C377.252 61.8407 381.905 61.8407 385.631 60.4845C391.878 58.2111 396.798 53.2906 399.072 47.0443C400.428 43.3184 400.428 38.6642 400.428 29.3581C400.428 28.1952 400.428 27.6136 400.597 27.1479C400.881 26.3672 401.496 25.7521 402.277 25.4679C402.743 25.2984 403.325 25.2984 404.488 25.2984H427.132C462.553 25.2984 480.263 25.2984 493.793 32.1918C505.693 38.2555 515.369 47.9309 521.432 59.8315C528.326 73.3606 528.326 91.0712 528.326 126.492V1002.8C528.326 1038.23 528.326 1055.94 521.432 1069.47C515.369 1081.37 505.693 1091.04 493.793 1097.1C480.263 1104 462.553 1104 427.132 1104H130.577C95.1558 1104 77.4452 1104 63.9161 1097.1C52.0155 1091.04 42.3401 1081.37 36.2765 1069.47C29.383 1055.94 29.383 1038.23 29.383 1002.8Z"/>
</mask>
<path fill-rule="evenodd" clip-rule="evenodd" d="M18.2816 48.5963C9.70312 65.4325 9.70312 87.4724 9.70312 131.552V998.447C9.70312 1042.53 9.70312 1064.57 18.2816 1081.4C25.8275 1096.21 37.868 1108.25 52.6776 1115.8C69.5138 1124.38 91.5537 1124.38 135.633 1124.38H421.366C465.446 1124.38 487.486 1124.38 504.322 1115.8C519.131 1108.25 531.172 1096.21 538.718 1081.4C547.296 1064.57 547.296 1042.53 547.296 998.447V131.552C547.296 87.4724 547.296 65.4325 538.718 48.5963C531.172 33.7867 519.131 21.7462 504.322 14.2003C487.486 5.62183 465.446 5.62183 421.366 5.62183H135.633C91.5537 5.62183 69.5138 5.62183 52.6776 14.2003C37.868 21.7462 25.8275 33.7867 18.2816 48.5963ZM29.383 1002.8V126.492C29.383 91.0712 29.383 73.3606 36.2765 59.8315C42.3401 47.9309 52.0155 38.2555 63.9161 32.1918C77.4452 25.2984 95.1558 25.2984 130.577 25.2984H153.221C154.384 25.2984 154.966 25.2984 155.431 25.4679C156.212 25.7521 156.827 26.3672 157.111 27.1479C157.281 27.6137 157.281 28.1954 157.281 29.3587C157.281 38.6651 157.281 43.3183 158.637 47.0443C160.911 53.2906 165.831 58.2111 172.077 60.4845C175.803 61.8407 180.457 61.8407 189.763 61.8407H367.946C377.252 61.8407 381.905 61.8407 385.631 60.4845C391.878 58.2111 396.798 53.2906 399.072 47.0443C400.428 43.3184 400.428 38.6642 400.428 29.3581C400.428 28.1952 400.428 27.6136 400.597 27.1479C400.881 26.3672 401.496 25.7521 402.277 25.4679C402.743 25.2984 403.325 25.2984 404.488 25.2984H427.132C462.553 25.2984 480.263 25.2984 493.793 32.1918C505.693 38.2555 515.369 47.9309 521.432 59.8315C528.326 73.3606 528.326 91.0712 528.326 126.492V1002.8C528.326 1038.23 528.326 1055.94 521.432 1069.47C515.369 1081.37 505.693 1091.04 493.793 1097.1C480.263 1104 462.553 1104 427.132 1104H130.577C95.1558 1104 77.4452 1104 63.9161 1097.1C52.0155 1091.04 42.3401 1081.37 36.2765 1069.47C29.383 1055.94 29.383 1038.23 29.383 1002.8Z" fill="black"/>
<path d="M18.2816 48.5963L18.7271 48.8233L18.7271 48.8233L18.2816 48.5963ZM18.2816 1081.4L17.8361 1081.63L17.8361 1081.63L18.2816 1081.4ZM52.6776 1115.8L52.4506 1116.24L52.4506 1116.24L52.6776 1115.8ZM504.322 1115.8L504.549 1116.24L504.549 1116.24L504.322 1115.8ZM538.718 1081.4L539.163 1081.63L539.163 1081.63L538.718 1081.4ZM538.718 48.5963L539.163 48.3693L539.163 48.3693L538.718 48.5963ZM504.322 14.2003L504.549 13.7548L504.549 13.7548L504.322 14.2003ZM52.6776 14.2003L52.9046 14.6458L52.9046 14.6458L52.6776 14.2003ZM36.2765 59.8315L36.722 60.0585L36.722 60.0585L36.2765 59.8315ZM63.9161 32.1918L64.1431 32.6373L64.1431 32.6373L63.9161 32.1918ZM155.431 25.4679L155.26 25.9378L155.26 25.9378L155.431 25.4679ZM157.111 27.1479L157.581 26.9769L157.581 26.9769L157.111 27.1479ZM158.637 47.0443L158.167 47.2153L158.167 47.2153L158.637 47.0443ZM172.077 60.4845L171.906 60.9544L171.906 60.9544L172.077 60.4845ZM385.631 60.4845L385.802 60.9544L385.802 60.9544L385.631 60.4845ZM399.072 47.0443L398.602 46.8733L398.602 46.8733L399.072 47.0443ZM400.597 27.1479L401.067 27.319L401.067 27.319L400.597 27.1479ZM402.277 25.4679L402.106 24.9981L402.106 24.9981L402.277 25.4679ZM493.793 32.1918L494.02 31.7463L494.02 31.7463L493.793 32.1918ZM521.432 59.8315L520.987 60.0585L520.987 60.0585L521.432 59.8315ZM521.432 1069.47L520.987 1069.24L520.987 1069.24L521.432 1069.47ZM493.793 1097.1L494.02 1097.55L494.02 1097.55L493.793 1097.1ZM63.9161 1097.1L63.6891 1097.55L63.6891 1097.55L63.9161 1097.1ZM36.2765 1069.47L35.831 1069.69L35.831 1069.69L36.2765 1069.47ZM10.2031 131.552C10.2031 109.504 10.2035 92.998 11.2738 79.8986C12.3436 66.8051 14.4798 57.1592 18.7271 48.8233L17.8361 48.3693C13.505 56.8696 11.3519 66.6618 10.2771 79.8172C9.20274 92.9667 9.20312 109.52 9.20312 131.552H10.2031ZM10.2031 998.447V131.552H9.20312V998.447H10.2031ZM18.7271 1081.18C14.4798 1072.84 12.3436 1063.19 11.2738 1050.1C10.2035 1037 10.2031 1020.5 10.2031 998.447H9.20312C9.20312 1020.48 9.20274 1037.03 10.2771 1050.18C11.3519 1063.34 13.505 1073.13 17.8361 1081.63L18.7271 1081.18ZM52.9046 1115.35C38.1891 1107.86 26.225 1095.89 18.7271 1081.18L17.8361 1081.63C25.4299 1096.53 37.5469 1108.65 52.4506 1116.24L52.9046 1115.35ZM135.633 1123.88C113.585 1123.88 97.0793 1123.88 83.9799 1122.81C70.8864 1121.74 61.2405 1119.6 52.9046 1115.35L52.4506 1116.24C60.951 1120.58 70.7431 1122.73 83.8985 1123.8C97.048 1124.88 113.602 1124.88 135.633 1124.88V1123.88ZM421.366 1123.88H135.633V1124.88H421.366V1123.88ZM504.095 1115.35C495.759 1119.6 486.113 1121.74 473.019 1122.81C459.92 1123.88 443.414 1123.88 421.366 1123.88V1124.88C443.398 1124.88 459.951 1124.88 473.101 1123.8C486.256 1122.73 496.048 1120.58 504.549 1116.24L504.095 1115.35ZM538.272 1081.18C530.774 1095.89 518.81 1107.86 504.095 1115.35L504.549 1116.24C519.452 1108.65 531.569 1096.53 539.163 1081.63L538.272 1081.18ZM546.796 998.447C546.796 1020.5 546.796 1037 545.726 1050.1C544.656 1063.19 542.52 1072.84 538.272 1081.18L539.163 1081.63C543.494 1073.13 545.647 1063.34 546.722 1050.18C547.797 1037.03 547.796 1020.48 547.796 998.447H546.796ZM546.796 131.552V998.447H547.796V131.552H546.796ZM538.272 48.8233C542.52 57.1592 544.656 66.8051 545.726 79.8986C546.796 92.998 546.796 109.504 546.796 131.552H547.796C547.796 109.521 547.797 92.9667 546.722 79.8172C545.647 66.6618 543.494 56.8696 539.163 48.3693L538.272 48.8233ZM504.095 14.6458C518.81 22.1437 530.774 34.1078 538.272 48.8233L539.163 48.3693C531.569 33.4656 519.452 21.3486 504.549 13.7548L504.095 14.6458ZM421.366 6.12183C443.414 6.12183 459.92 6.12222 473.019 7.19248C486.113 8.26226 495.759 10.3985 504.095 14.6458L504.549 13.7548C496.048 9.42367 486.256 7.27064 473.101 6.1958C459.951 5.12144 443.398 5.12183 421.366 5.12183V6.12183ZM135.633 6.12183H421.366V5.12183H135.633V6.12183ZM52.9046 14.6458C61.2405 10.3985 70.8864 8.26226 83.9799 7.19248C97.0793 6.12222 113.585 6.12183 135.633 6.12183V5.12183C113.602 5.12183 97.048 5.12144 83.8985 6.1958C70.7431 7.27064 60.951 9.42367 52.4506 13.7548L52.9046 14.6458ZM18.7271 48.8233C26.225 34.1078 38.1891 22.1437 52.9046 14.6458L52.4506 13.7548C37.5469 21.3486 25.4299 33.4656 17.8361 48.3693L18.7271 48.8233ZM28.883 126.492V1002.8H29.883V126.492H28.883ZM35.831 59.6045C32.3423 66.4513 30.6106 74.3343 29.7464 84.9117C28.8826 95.4832 28.883 108.79 28.883 126.492H29.883C29.883 108.774 29.8834 95.5145 30.7431 84.9931C31.6022 74.4776 33.3172 66.7408 36.722 60.0585L35.831 59.6045ZM63.6891 31.7463C51.6945 37.8579 41.9425 47.6098 35.831 59.6045L36.722 60.0585C42.7377 48.252 52.3366 38.653 64.1431 32.6373L63.6891 31.7463ZM130.577 24.7984C112.875 24.7984 99.5678 24.798 88.9963 25.6617C78.4189 26.5259 70.5359 28.2577 63.6891 31.7463L64.1431 32.6373C70.8254 29.2325 78.5622 27.5176 89.0777 26.6584C99.5991 25.7988 112.858 25.7984 130.577 25.7984V24.7984ZM153.221 24.7984H130.577V25.7984H153.221V24.7984ZM155.602 24.9981C155.033 24.7908 154.341 24.7984 153.221 24.7984V25.7984C154.428 25.7984 154.898 25.806 155.26 25.9378L155.602 24.9981ZM157.581 26.9769C157.247 26.0573 156.522 25.3328 155.602 24.9981L155.26 25.9378C155.902 26.1714 156.408 26.6771 156.642 27.319L157.581 26.9769ZM157.781 29.3587C157.781 28.2388 157.789 27.5464 157.581 26.9769L156.642 27.319C156.773 27.681 156.781 28.1519 156.781 29.3587H157.781ZM159.107 46.8733C157.789 43.251 157.781 38.7086 157.781 29.3587H156.781C156.781 38.6216 156.773 43.3856 158.167 47.2153L159.107 46.8733ZM172.248 60.0147C166.141 57.7918 161.33 52.9807 159.107 46.8733L158.167 47.2153C160.491 53.6005 165.521 58.6304 171.906 60.9544L172.248 60.0147ZM189.763 61.3407C180.413 61.3407 175.871 61.3331 172.248 60.0147L171.906 60.9544C175.736 62.3483 180.5 62.3407 189.763 62.3407V61.3407ZM367.946 61.3407H189.763V62.3407H367.946V61.3407ZM385.46 60.0147C381.838 61.3331 377.296 61.3407 367.946 61.3407V62.3407C377.209 62.3407 381.973 62.3483 385.802 60.9544L385.46 60.0147ZM398.602 46.8733C396.379 52.9807 391.568 57.7918 385.46 60.0147L385.802 60.9544C392.188 58.6304 397.217 53.6005 399.541 47.2153L398.602 46.8733ZM399.928 29.3581C399.928 38.7077 399.92 43.2511 398.602 46.8733L399.541 47.2153C400.935 43.3856 400.928 38.6207 400.928 29.3581H399.928ZM400.127 26.9769C399.92 27.5463 399.928 28.2387 399.928 29.3581H400.928C400.928 28.1517 400.935 27.6809 401.067 27.319L400.127 26.9769ZM402.106 24.9981C401.187 25.3328 400.462 26.0573 400.127 26.9769L401.067 27.319C401.301 26.6771 401.806 26.1714 402.448 25.9378L402.106 24.9981ZM404.488 24.7984C403.368 24.7984 402.676 24.7908 402.106 24.9981L402.448 25.9378C402.81 25.806 403.281 25.7984 404.488 25.7984V24.7984ZM427.132 24.7984H404.488V25.7984H427.132V24.7984ZM494.02 31.7463C487.173 28.2577 479.29 26.5259 468.712 25.6617C458.141 24.798 444.834 24.7984 427.132 24.7984V25.7984C444.851 25.7984 458.11 25.7988 468.631 26.6584C479.146 27.5176 486.883 29.2325 493.566 32.6373L494.02 31.7463ZM521.878 59.6045C515.766 47.6098 506.014 37.8579 494.02 31.7463L493.566 32.6373C505.372 38.653 514.971 48.252 520.987 60.0585L521.878 59.6045ZM528.826 126.492C528.826 108.79 528.826 95.4832 527.962 84.9117C527.098 74.3343 525.366 66.4513 521.878 59.6045L520.987 60.0585C524.392 66.7408 526.107 74.4776 526.966 84.9931C527.825 95.5145 527.826 108.774 527.826 126.492H528.826ZM528.826 1002.8V126.492H527.826V1002.8H528.826ZM521.878 1069.69C525.366 1062.85 527.098 1054.96 527.962 1044.39C528.826 1033.81 528.826 1020.51 528.826 1002.8H527.826C527.826 1020.52 527.825 1033.78 526.966 1044.3C526.107 1054.82 524.392 1062.56 520.987 1069.24L521.878 1069.69ZM494.02 1097.55C506.014 1091.44 515.766 1081.69 521.878 1069.69L520.987 1069.24C514.971 1081.04 505.372 1090.64 493.566 1096.66L494.02 1097.55ZM427.132 1104.5C444.834 1104.5 458.141 1104.5 468.712 1103.64C479.29 1102.77 487.173 1101.04 494.02 1097.55L493.566 1096.66C486.883 1100.06 479.146 1101.78 468.631 1102.64C458.11 1103.5 444.851 1103.5 427.132 1103.5V1104.5ZM130.577 1104.5H427.132V1103.5H130.577V1104.5ZM63.6891 1097.55C70.5359 1101.04 78.4189 1102.77 88.9963 1103.64C99.5678 1104.5 112.875 1104.5 130.577 1104.5V1103.5C112.858 1103.5 99.5991 1103.5 89.0777 1102.64C78.5622 1101.78 70.8254 1100.06 64.1431 1096.66L63.6891 1097.55ZM35.831 1069.69C41.9425 1081.69 51.6945 1091.44 63.6891 1097.55L64.1431 1096.66C52.3366 1090.64 42.7377 1081.04 36.722 1069.24L35.831 1069.69ZM28.883 1002.8C28.883 1020.51 28.8826 1033.81 29.7464 1044.39C30.6106 1054.96 32.3423 1062.85 35.831 1069.69L36.722 1069.24C33.3172 1062.56 31.6022 1054.82 30.7431 1044.3C29.8834 1033.78 29.883 1020.52 29.883 1002.8H28.883Z" fill="url(#paint6_linear_145_58)" mask="url(#path-9-inside-1_145_58)"/>
<g filter="url(#filter0_ii_145_58)">
<path d="M0.566406 217.145C0.566406 216.369 1.19566 215.74 1.97188 215.74H4.08009V256.498H1.97188C1.19566 256.498 0.566406 255.869 0.566406 255.093V217.145Z" fill="url(#paint7_linear_145_58)"/>
</g>
<g filter="url(#filter1_ii_145_58)">
<path d="M0.566406 290.932C0.566406 290.156 1.19566 289.526 1.97188 289.526H4.08009V368.233H1.97188C1.19566 368.233 0.566406 367.604 0.566406 366.827V290.932Z" fill="url(#paint8_linear_145_58)"/>
</g>
<g filter="url(#filter2_ii_145_58)">
<path d="M552.914 315.528H555.022C555.798 315.528 556.428 316.158 556.428 316.934V436.399C556.428 437.175 555.798 437.804 555.022 437.804H552.914V315.528Z" fill="url(#paint9_linear_145_58)"/>
</g>
<g filter="url(#filter3_ii_145_58)">
<path d="M0.566406 387.207C0.566406 386.431 1.19566 385.802 1.97188 385.802H4.08009V464.508H1.97188C1.19566 464.508 0.566406 463.879 0.566406 463.103V387.207Z" fill="url(#paint10_linear_145_58)"/>
</g>
</g>
<g style="mix-blend-mode:screen">
<mask id="mask1_145_58" style="mask-type:alpha" maskUnits="userSpaceOnUse" x="4" y="0" width="549" height="1130">
<path fill-rule="evenodd" clip-rule="evenodd" d="M13.2733 46.0443C4.08203 64.0831 4.08203 87.6973 4.08203 134.926V995.075C4.08203 1042.3 4.08203 1065.92 13.2733 1083.96C21.3581 1099.82 34.2587 1112.72 50.1261 1120.81C68.1649 1130 91.7791 1130 139.007 1130H417.994C465.222 1130 488.836 1130 506.875 1120.81C522.742 1112.72 535.643 1099.82 543.728 1083.96C552.919 1065.92 552.919 1042.3 552.919 995.075V134.926C552.919 87.6973 552.919 64.0831 543.728 46.0443C535.643 30.1769 522.742 17.2763 506.875 9.19148C488.836 0.000244141 465.222 0.000244141 417.994 0.000244141H139.007C91.7791 0.000244141 68.1649 0.000244141 50.1261 9.19148C34.2587 17.2763 21.3581 30.1769 13.2733 46.0443ZM29.3829 1002.8V126.491C29.3829 91.0701 29.3829 73.3595 36.2763 59.8304C42.3399 47.9298 52.0154 38.2544 63.9159 32.1908C77.445 25.2973 95.1557 25.2973 130.577 25.2973H153.221C154.384 25.2973 154.966 25.2973 155.431 25.4669C156.212 25.751 156.827 26.3661 157.111 27.1469C157.281 27.6126 157.281 28.1943 157.281 29.3576C157.281 38.664 157.281 43.3172 158.637 47.0433C160.91 53.2895 165.831 58.21 172.077 60.4835C175.803 61.8396 180.456 61.8396 189.763 61.8396H367.946C377.252 61.8396 381.905 61.8396 385.631 60.4835C391.877 58.21 396.798 53.2895 399.071 47.0433C400.428 43.3173 400.428 38.6631 400.428 29.3571C400.428 28.1941 400.428 27.6126 400.597 27.1469C400.881 26.3661 401.496 25.751 402.277 25.4669C402.743 25.2973 403.324 25.2973 404.488 25.2973H427.132C462.553 25.2973 480.263 25.2973 493.792 32.1908C505.693 38.2544 515.368 47.9298 521.432 59.8304C528.326 73.3595 528.326 91.0701 528.326 126.491V1002.8C528.326 1038.22 528.326 1055.94 521.432 1069.46C515.368 1081.36 505.693 1091.04 493.792 1097.1C480.263 1104 462.553 1104 427.132 1104H130.577C95.1557 1104 77.445 1104 63.9159 1097.1C52.0154 1091.04 42.3399 1081.36 36.2763 1069.46C29.3829 1055.94 29.3829 1038.22 29.3829 1002.8Z" fill="black"/>
</mask>
<g mask="url(#mask1_145_58)">
<g filter="url(#filter4_ii_145_58)">
<path d="M4.08203 134.926C4.08203 87.6973 4.08203 64.0831 13.2733 46.0443C21.3581 30.1769 34.2587 17.2763 50.1261 9.19148C68.1649 0.000244141 91.7791 0.000244141 139.007 0.000244141H417.994C465.222 0.000244141 488.836 0.000244141 506.875 9.19148C522.742 17.2763 535.643 30.1769 543.728 46.0443C552.919 64.0831 552.919 87.6973 552.919 134.926V995.075C552.919 1042.3 552.919 1065.92 543.728 1083.96C535.643 1099.82 522.742 1112.72 506.875 1120.81C488.836 1130 465.222 1130 417.994 1130H139.007C91.7791 1130 68.1649 1130 50.1261 1120.81C34.2587 1112.72 21.3581 1099.82 13.2733 1083.96C4.08203 1065.92 4.08203 1042.3 4.08203 995.075V134.926Z" fill="#050505"/>
</g>
<path d="M139.007 1.00024H417.994C441.624 1.00024 459.287 1.00102 473.299 2.14583C487.299 3.28968 497.566 5.57067 506.421 10.0825C522.1 18.0715 534.848 30.8191 542.837 46.4983C547.349 55.3533 549.63 65.6202 550.773 79.6203C551.918 93.6321 551.919 111.295 551.919 134.926V995.075C551.919 1018.71 551.918 1036.37 550.773 1050.38C549.63 1064.38 547.349 1074.65 542.837 1083.5C534.848 1099.18 522.1 1111.93 506.421 1119.92C497.566 1124.43 487.299 1126.71 473.299 1127.85C459.287 1129 441.624 1129 417.994 1129H139.007C115.377 1129 97.7139 1129 83.7021 1127.85C69.702 1126.71 59.435 1124.43 50.5801 1119.92C34.9009 1111.93 22.1532 1099.18 14.1643 1083.5C9.65246 1074.65 7.37147 1064.38 6.22762 1050.38C5.08281 1036.37 5.08203 1018.71 5.08203 995.075V134.926C5.08203 111.295 5.08281 93.6321 6.22762 79.6203C7.37147 65.6202 9.65246 55.3533 14.1643 46.4983C22.1532 30.8191 34.9009 18.0715 50.5801 10.0825C59.435 5.57067 69.702 3.28968 83.7021 2.14583C97.7139 1.00102 115.377 1.00024 139.007 1.00024Z" stroke="url(#paint11_linear_145_58)" stroke-width="2"/>
<rect x="0.568359" y="123.682" width="11.9465" height="9.83831" fill="url(#paint12_linear_145_58)"/>
<rect x="0.568359" y="996.48" width="11.9465" height="9.83831" fill="url(#paint13_linear_145_58)"/>
<rect x="544.488" y="123.682" width="11.9465" height="9.83831" fill="url(#paint14_linear_145_58)"/>
<rect x="544.488" y="996.48" width="11.9465" height="9.83831" fill="url(#paint15_linear_145_58)"/>
<rect x="429.234" y="-3.51343" width="11.9465" height="9.83831" transform="rotate(90 429.234 -3.51343)" fill="url(#paint16_linear_145_58)"/>
<rect x="137.602" y="1120.86" width="11.9465" height="9.83831" transform="rotate(90 137.602 1120.86)" fill="url(#paint17_linear_145_58)"/>
</g>
<mask id="path-24-inside-2_145_58" fill="white">
<path fill-rule="evenodd" clip-rule="evenodd" d="M18.2816 48.5963C9.70312 65.4325 9.70312 87.4724 9.70312 131.552V998.447C9.70312 1042.53 9.70312 1064.57 18.2816 1081.4C25.8275 1096.21 37.868 1108.25 52.6776 1115.8C69.5138 1124.38 91.5537 1124.38 135.633 1124.38H421.366C465.446 1124.38 487.486 1124.38 504.322 1115.8C519.131 1108.25 531.172 1096.21 538.718 1081.4C547.296 1064.57 547.296 1042.53 547.296 998.447V131.552C547.296 87.4724 547.296 65.4325 538.718 48.5963C531.172 33.7867 519.131 21.7462 504.322 14.2003C487.486 5.62183 465.446 5.62183 421.366 5.62183H135.633C91.5537 5.62183 69.5138 5.62183 52.6776 14.2003C37.868 21.7462 25.8275 33.7867 18.2816 48.5963ZM29.383 1002.8V126.492C29.383 91.0712 29.383 73.3606 36.2765 59.8315C42.3401 47.9309 52.0155 38.2555 63.9161 32.1918C77.4452 25.2984 95.1558 25.2984 130.577 25.2984H153.221C154.384 25.2984 154.966 25.2984 155.431 25.4679C156.212 25.7521 156.827 26.3672 157.111 27.1479C157.281 27.6137 157.281 28.1954 157.281 29.3587C157.281 38.6651 157.281 43.3183 158.637 47.0443C160.911 53.2906 165.831 58.2111 172.077 60.4845C175.803 61.8407 180.457 61.8407 189.763 61.8407H367.946C377.252 61.8407 381.905 61.8407 385.631 60.4845C391.878 58.2111 396.798 53.2906 399.072 47.0443C400.428 43.3184 400.428 38.6642 400.428 29.3581C400.428 28.1952 400.428 27.6136 400.597 27.1479C400.881 26.3672 401.496 25.7521 402.277 25.4679C402.743 25.2984 403.325 25.2984 404.488 25.2984H427.132C462.553 25.2984 480.263 25.2984 493.793 32.1918C505.693 38.2555 515.369 47.9309 521.432 59.8315C528.326 73.3606 528.326 91.0712 528.326 126.492V1002.8C528.326 1038.23 528.326 1055.94 521.432 1069.47C515.369 1081.37 505.693 1091.04 493.793 1097.1C480.263 1104 462.553 1104 427.132 1104H130.577C95.1558 1104 77.4452 1104 63.9161 1097.1C52.0155 1091.04 42.3401 1081.37 36.2765 1069.47C29.383 1055.94 29.383 1038.23 29.383 1002.8Z"/>
</mask>
<path fill-rule="evenodd" clip-rule="evenodd" d="M18.2816 48.5963C9.70312 65.4325 9.70312 87.4724 9.70312 131.552V998.447C9.70312 1042.53 9.70312 1064.57 18.2816 1081.4C25.8275 1096.21 37.868 1108.25 52.6776 1115.8C69.5138 1124.38 91.5537 1124.38 135.633 1124.38H421.366C465.446 1124.38 487.486 1124.38 504.322 1115.8C519.131 1108.25 531.172 1096.21 538.718 1081.4C547.296 1064.57 547.296 1042.53 547.296 998.447V131.552C547.296 87.4724 547.296 65.4325 538.718 48.5963C531.172 33.7867 519.131 21.7462 504.322 14.2003C487.486 5.62183 465.446 5.62183 421.366 5.62183H135.633C91.5537 5.62183 69.5138 5.62183 52.6776 14.2003C37.868 21.7462 25.8275 33.7867 18.2816 48.5963ZM29.383 1002.8V126.492C29.383 91.0712 29.383 73.3606 36.2765 59.8315C42.3401 47.9309 52.0155 38.2555 63.9161 32.1918C77.4452 25.2984 95.1558 25.2984 130.577 25.2984H153.221C154.384 25.2984 154.966 25.2984 155.431 25.4679C156.212 25.7521 156.827 26.3672 157.111 27.1479C157.281 27.6137 157.281 28.1954 157.281 29.3587C157.281 38.6651 157.281 43.3183 158.637 47.0443C160.911 53.2906 165.831 58.2111 172.077 60.4845C175.803 61.8407 180.457 61.8407 189.763 61.8407H367.946C377.252 61.8407 381.905 61.8407 385.631 60.4845C391.878 58.2111 396.798 53.2906 399.072 47.0443C400.428 43.3184 400.428 38.6642 400.428 29.3581C400.428 28.1952 400.428 27.6136 400.597 27.1479C400.881 26.3672 401.496 25.7521 402.277 25.4679C402.743 25.2984 403.325 25.2984 404.488 25.2984H427.132C462.553 25.2984 480.263 25.2984 493.793 32.1918C505.693 38.2555 515.369 47.9309 521.432 59.8315C528.326 73.3606 528.326 91.0712 528.326 126.492V1002.8C528.326 1038.23 528.326 1055.94 521.432 1069.47C515.369 1081.37 505.693 1091.04 493.793 1097.1C480.263 1104 462.553 1104 427.132 1104H130.577C95.1558 1104 77.4452 1104 63.9161 1097.1C52.0155 1091.04 42.3401 1081.37 36.2765 1069.47C29.383 1055.94 29.383 1038.23 29.383 1002.8Z" fill="black"/>
<path d="M18.2816 48.5963L18.7271 48.8233L18.7271 48.8233L18.2816 48.5963ZM18.2816 1081.4L17.8361 1081.63L17.8361 1081.63L18.2816 1081.4ZM52.6776 1115.8L52.4506 1116.24L52.4506 1116.24L52.6776 1115.8ZM504.322 1115.8L504.549 1116.24L504.549 1116.24L504.322 1115.8ZM538.718 1081.4L539.163 1081.63L539.163 1081.63L538.718 1081.4ZM538.718 48.5963L539.163 48.3693L539.163 48.3693L538.718 48.5963ZM504.322 14.2003L504.549 13.7548L504.549 13.7548L504.322 14.2003ZM52.6776 14.2003L52.9046 14.6458L52.9046 14.6458L52.6776 14.2003ZM36.2765 59.8315L36.722 60.0585L36.722 60.0585L36.2765 59.8315ZM63.9161 32.1918L64.1431 32.6373L64.1431 32.6373L63.9161 32.1918ZM155.431 25.4679L155.26 25.9378L155.26 25.9378L155.431 25.4679ZM157.111 27.1479L157.581 26.9769L157.581 26.9769L157.111 27.1479ZM158.637 47.0443L158.167 47.2153L158.167 47.2153L158.637 47.0443ZM172.077 60.4845L171.906 60.9544L171.906 60.9544L172.077 60.4845ZM385.631 60.4845L385.802 60.9544L385.802 60.9544L385.631 60.4845ZM399.072 47.0443L398.602 46.8733L398.602 46.8733L399.072 47.0443ZM400.597 27.1479L401.067 27.319L401.067 27.319L400.597 27.1479ZM402.277 25.4679L402.106 24.9981L402.106 24.9981L402.277 25.4679ZM493.793 32.1918L494.02 31.7463L494.02 31.7463L493.793 32.1918ZM521.432 59.8315L520.987 60.0585L520.987 60.0585L521.432 59.8315ZM521.432 1069.47L520.987 1069.24L520.987 1069.24L521.432 1069.47ZM493.793 1097.1L494.02 1097.55L494.02 1097.55L493.793 1097.1ZM63.9161 1097.1L63.6891 1097.55L63.6891 1097.55L63.9161 1097.1ZM36.2765 1069.47L35.831 1069.69L35.831 1069.69L36.2765 1069.47ZM10.2031 131.552C10.2031 109.504 10.2035 92.998 11.2738 79.8986C12.3436 66.8051 14.4798 57.1592 18.7271 48.8233L17.8361 48.3693C13.505 56.8696 11.3519 66.6618 10.2771 79.8172C9.20274 92.9667 9.20312 109.52 9.20312 131.552H10.2031ZM10.2031 998.447V131.552H9.20312V998.447H10.2031ZM18.7271 1081.18C14.4798 1072.84 12.3436 1063.19 11.2738 1050.1C10.2035 1037 10.2031 1020.5 10.2031 998.447H9.20312C9.20312 1020.48 9.20274 1037.03 10.2771 1050.18C11.3519 1063.34 13.505 1073.13 17.8361 1081.63L18.7271 1081.18ZM52.9046 1115.35C38.1891 1107.86 26.225 1095.89 18.7271 1081.18L17.8361 1081.63C25.4299 1096.53 37.5469 1108.65 52.4506 1116.24L52.9046 1115.35ZM135.633 1123.88C113.585 1123.88 97.0793 1123.88 83.9799 1122.81C70.8864 1121.74 61.2405 1119.6 52.9046 1115.35L52.4506 1116.24C60.951 1120.58 70.7431 1122.73 83.8985 1123.8C97.048 1124.88 113.602 1124.88 135.633 1124.88V1123.88ZM421.366 1123.88H135.633V1124.88H421.366V1123.88ZM504.095 1115.35C495.759 1119.6 486.113 1121.74 473.019 1122.81C459.92 1123.88 443.414 1123.88 421.366 1123.88V1124.88C443.398 1124.88 459.951 1124.88 473.101 1123.8C486.256 1122.73 496.048 1120.58 504.549 1116.24L504.095 1115.35ZM538.272 1081.18C530.774 1095.89 518.81 1107.86 504.095 1115.35L504.549 1116.24C519.452 1108.65 531.569 1096.53 539.163 1081.63L538.272 1081.18ZM546.796 998.447C546.796 1020.5 546.796 1037 545.726 1050.1C544.656 1063.19 542.52 1072.84 538.272 1081.18L539.163 1081.63C543.494 1073.13 545.647 1063.34 546.722 1050.18C547.797 1037.03 547.796 1020.48 547.796 998.447H546.796ZM546.796 131.552V998.447H547.796V131.552H546.796ZM538.272 48.8233C542.52 57.1592 544.656 66.8051 545.726 79.8986C546.796 92.998 546.796 109.504 546.796 131.552H547.796C547.796 109.521 547.797 92.9667 546.722 79.8172C545.647 66.6618 543.494 56.8696 539.163 48.3693L538.272 48.8233ZM504.095 14.6458C518.81 22.1437 530.774 34.1078 538.272 48.8233L539.163 48.3693C531.569 33.4656 519.452 21.3486 504.549 13.7548L504.095 14.6458ZM421.366 6.12183C443.414 6.12183 459.92 6.12222 473.019 7.19248C486.113 8.26226 495.759 10.3985 504.095 14.6458L504.549 13.7548C496.048 9.42367 486.256 7.27064 473.101 6.1958C459.951 5.12144 443.398 5.12183 421.366 5.12183V6.12183ZM135.633 6.12183H421.366V5.12183H135.633V6.12183ZM52.9046 14.6458C61.2405 10.3985 70.8864 8.26226 83.9799 7.19248C97.0793 6.12222 113.585 6.12183 135.633 6.12183V5.12183C113.602 5.12183 97.048 5.12144 83.8985 6.1958C70.7431 7.27064 60.951 9.42367 52.4506 13.7548L52.9046 14.6458ZM18.7271 48.8233C26.225 34.1078 38.1891 22.1437 52.9046 14.6458L52.4506 13.7548C37.5469 21.3486 25.4299 33.4656 17.8361 48.3693L18.7271 48.8233ZM28.883 126.492V1002.8H29.883V126.492H28.883ZM35.831 59.6045C32.3423 66.4513 30.6106 74.3343 29.7464 84.9117C28.8826 95.4832 28.883 108.79 28.883 126.492H29.883C29.883 108.774 29.8834 95.5145 30.7431 84.9931C31.6022 74.4776 33.3172 66.7408 36.722 60.0585L35.831 59.6045ZM63.6891 31.7463C51.6945 37.8579 41.9425 47.6098 35.831 59.6045L36.722 60.0585C42.7377 48.252 52.3366 38.653 64.1431 32.6373L63.6891 31.7463ZM130.577 24.7984C112.875 24.7984 99.5678 24.798 88.9963 25.6617C78.4189 26.5259 70.5359 28.2577 63.6891 31.7463L64.1431 32.6373C70.8254 29.2325 78.5622 27.5176 89.0777 26.6584C99.5991 25.7988 112.858 25.7984 130.577 25.7984V24.7984ZM153.221 24.7984H130.577V25.7984H153.221V24.7984ZM155.602 24.9981C155.033 24.7908 154.341 24.7984 153.221 24.7984V25.7984C154.428 25.7984 154.898 25.806 155.26 25.9378L155.602 24.9981ZM157.581 26.9769C157.247 26.0573 156.522 25.3328 155.602 24.9981L155.26 25.9378C155.902 26.1714 156.408 26.6771 156.642 27.319L157.581 26.9769ZM157.781 29.3587C157.781 28.2388 157.789 27.5464 157.581 26.9769L156.642 27.319C156.773 27.681 156.781 28.1519 156.781 29.3587H157.781ZM159.107 46.8733C157.789 43.251 157.781 38.7086 157.781 29.3587H156.781C156.781 38.6216 156.773 43.3856 158.167 47.2153L159.107 46.8733ZM172.248 60.0147C166.141 57.7918 161.33 52.9807 159.107 46.8733L158.167 47.2153C160.491 53.6005 165.521 58.6304 171.906 60.9544L172.248 60.0147ZM189.763 61.3407C180.413 61.3407 175.871 61.3331 172.248 60.0147L171.906 60.9544C175.736 62.3483 180.5 62.3407 189.763 62.3407V61.3407ZM367.946 61.3407H189.763V62.3407H367.946V61.3407ZM385.46 60.0147C381.838 61.3331 377.296 61.3407 367.946 61.3407V62.3407C377.209 62.3407 381.973 62.3483 385.802 60.9544L385.46 60.0147ZM398.602 46.8733C396.379 52.9807 391.568 57.7918 385.46 60.0147L385.802 60.9544C392.188 58.6304 397.217 53.6005 399.541 47.2153L398.602 46.8733ZM399.928 29.3581C399.928 38.7077 399.92 43.2511 398.602 46.8733L399.541 47.2153C400.935 43.3856 400.928 38.6207 400.928 29.3581H399.928ZM400.127 26.9769C399.92 27.5463 399.928 28.2387 399.928 29.3581H400.928C400.928 28.1517 400.935 27.6809 401.067 27.319L400.127 26.9769ZM402.106 24.9981C401.187 25.3328 400.462 26.0573 400.127 26.9769L401.067 27.319C401.301 26.6771 401.806 26.1714 402.448 25.9378L402.106 24.9981ZM404.488 24.7984C403.368 24.7984 402.676 24.7908 402.106 24.9981L402.448 25.9378C402.81 25.806 403.281 25.7984 404.488 25.7984V24.7984ZM427.132 24.7984H404.488V25.7984H427.132V24.7984ZM494.02 31.7463C487.173 28.2577 479.29 26.5259 468.712 25.6617C458.141 24.798 444.834 24.7984 427.132 24.7984V25.7984C444.851 25.7984 458.11 25.7988 468.631 26.6584C479.146 27.5176 486.883 29.2325 493.566 32.6373L494.02 31.7463ZM521.878 59.6045C515.766 47.6098 506.014 37.8579 494.02 31.7463L493.566 32.6373C505.372 38.653 514.971 48.252 520.987 60.0585L521.878 59.6045ZM528.826 126.492C528.826 108.79 528.826 95.4832 527.962 84.9117C527.098 74.3343 525.366 66.4513 521.878 59.6045L520.987 60.0585C524.392 66.7408 526.107 74.4776 526.966 84.9931C527.825 95.5145 527.826 108.774 527.826 126.492H528.826ZM528.826 1002.8V126.492H527.826V1002.8H528.826ZM521.878 1069.69C525.366 1062.85 527.098 1054.96 527.962 1044.39C528.826 1033.81 528.826 1020.51 528.826 1002.8H527.826C527.826 1020.52 527.825 1033.78 526.966 1044.3C526.107 1054.82 524.392 1062.56 520.987 1069.24L521.878 1069.69ZM494.02 1097.55C506.014 1091.44 515.766 1081.69 521.878 1069.69L520.987 1069.24C514.971 1081.04 505.372 1090.64 493.566 1096.66L494.02 1097.55ZM427.132 1104.5C444.834 1104.5 458.141 1104.5 468.712 1103.64C479.29 1102.77 487.173 1101.04 494.02 1097.55L493.566 1096.66C486.883 1100.06 479.146 1101.78 468.631 1102.64C458.11 1103.5 444.851 1103.5 427.132 1103.5V1104.5ZM130.577 1104.5H427.132V1103.5H130.577V1104.5ZM63.6891 1097.55C70.5359 1101.04 78.4189 1102.77 88.9963 1103.64C99.5678 1104.5 112.875 1104.5 130.577 1104.5V1103.5C112.858 1103.5 99.5991 1103.5 89.0777 1102.64C78.5622 1101.78 70.8254 1100.06 64.1431 1096.66L63.6891 1097.55ZM35.831 1069.69C41.9425 1081.69 51.6945 1091.44 63.6891 1097.55L64.1431 1096.66C52.3366 1090.64 42.7377 1081.04 36.722 1069.24L35.831 1069.69ZM28.883 1002.8C28.883 1020.51 28.8826 1033.81 29.7464 1044.39C30.6106 1054.96 32.3423 1062.85 35.831 1069.69L36.722 1069.24C33.3172 1062.56 31.6022 1054.82 30.7431 1044.3C29.8834 1033.78 29.883 1020.52 29.883 1002.8H28.883Z" fill="url(#paint18_linear_145_58)" mask="url(#path-24-inside-2_145_58)"/>
<g filter="url(#filter5_iiii_145_58)">
<path d="M0.566406 217.145C0.566406 216.369 1.19566 215.74 1.97188 215.74H4.08009V256.498H1.97188C1.19566 256.498 0.566406 255.869 0.566406 255.093V217.145Z" fill="url(#paint19_linear_145_58)"/>
</g>
<g filter="url(#filter6_iiii_145_58)">
<path d="M0.566406 290.932C0.566406 290.156 1.19566 289.526 1.97188 289.526H4.08009V368.233H1.97188C1.19566 368.233 0.566406 367.604 0.566406 366.827V290.932Z" fill="url(#paint20_linear_145_58)"/>
</g>
<g filter="url(#filter7_iiii_145_58)">
<path d="M552.914 315.528H555.022C555.798 315.528 556.428 316.158 556.428 316.934V436.399C556.428 437.175 555.798 437.804 555.022 437.804H552.914V315.528Z" fill="url(#paint21_linear_145_58)"/>
</g>
<g filter="url(#filter8_iiii_145_58)">
<path d="M0.566406 387.207C0.566406 386.431 1.19566 385.802 1.97188 385.802H4.08009V464.508H1.97188C1.19566 464.508 0.566406 463.879 0.566406 463.103V387.207Z" fill="url(#paint22_linear_145_58)"/>
</g>
</g>
<g filter="url(#filter9_i_145_58)">
<path d="M251.441 38.6506C251.441 35.9338 253.644 33.7314 256.361 33.7314H301.336C304.052 33.7314 306.255 35.9338 306.255 38.6506C306.255 41.3674 304.052 43.5698 301.336 43.5698H256.361C253.644 43.5698 251.441 41.3674 251.441 38.6506Z" fill="#161616"/>
</g>
<g filter="url(#filter10_f_145_58)">
<path d="M256.361 34.7314H301.336C303.5 34.7314 305.255 36.4861 305.255 38.6506C305.255 40.8151 303.5 42.5698 301.336 42.5698H256.361C254.196 42.5698 252.441 40.8151 252.441 38.6506C252.441 36.4861 254.196 34.7314 256.361 34.7314Z" stroke="black" stroke-opacity="0.32" stroke-width="2"/>
</g>
<path d="M256.361 34.2314H301.336C303.776 34.2314 305.755 36.21 305.755 38.6506C305.755 41.0912 303.776 43.0698 301.336 43.0698H256.361C253.92 43.0698 251.941 41.0912 251.941 38.6506C251.941 36.21 253.92 34.2314 256.361 34.2314Z" stroke="url(#paint23_linear_145_58)"/>
<path d="M317.496 38.651C317.496 33.2175 321.901 28.8127 327.334 28.8127C332.768 28.8127 337.173 33.2175 337.173 38.651C337.173 44.0846 332.768 48.4894 327.334 48.4894C321.901 48.4894 317.496 44.0846 317.496 38.651Z" fill="url(#paint24_radial_145_58)"/>
<path d="M317.496 38.651C317.496 33.2175 321.901 28.8127 327.334 28.8127C332.768 28.8127 337.173 33.2175 337.173 38.651C337.173 44.0846 332.768 48.4894 327.334 48.4894C321.901 48.4894 317.496 44.0846 317.496 38.651Z" fill="url(#paint25_radial_145_58)"/>
<path d="M332.258 38.6506C332.258 35.9338 330.056 33.7314 327.339 33.7314C324.622 33.7314 322.42 35.9338 322.42 38.6506C322.42 41.3674 324.622 43.5698 327.339 43.5698C330.056 43.5698 332.258 41.3674 332.258 38.6506Z" fill="url(#paint26_linear_145_58)"/>
<path d="M332.258 38.6506C332.258 35.9338 330.056 33.7314 327.339 33.7314C324.622 33.7314 322.42 35.9338 322.42 38.6506C322.42 41.3674 324.622 43.5698 327.339 43.5698C330.056 43.5698 332.258 41.3674 332.258 38.6506Z" fill="url(#paint27_radial_145_58)"/>
<path d="M332.258 38.6506C332.258 35.9338 330.056 33.7314 327.339 33.7314C324.622 33.7314 322.42 35.9338 322.42 38.6506C322.42 41.3674 324.622 43.5698 327.339 43.5698C330.056 43.5698 332.258 41.3674 332.258 38.6506Z" fill="url(#paint28_radial_145_58)"/>
<path d="M332.258 38.6506C332.258 35.9338 330.056 33.7314 327.339 33.7314C324.622 33.7314 322.42 35.9338 322.42 38.6506C322.42 41.3674 324.622 43.5698 327.339 43.5698C330.056 43.5698 332.258 41.3674 332.258 38.6506Z" fill="url(#paint29_radial_145_58)"/>
<path d="M332.258 38.6506C332.258 35.9338 330.056 33.7314 327.339 33.7314C324.622 33.7314 322.42 35.9338 322.42 38.6506C322.42 41.3674 324.622 43.5698 327.339 43.5698C330.056 43.5698 332.258 41.3674 332.258 38.6506Z" fill="url(#paint30_radial_145_58)"/>
<defs>
<filter id="filter0_ii_145_58" x="0.566406" y="213.74" width="3.51367" height="44.7588" filterUnits="userSpaceOnUse" color-interpolation-filters="sRGB">
<feFlood flood-opacity="0" result="BackgroundImageFix"/>
<feBlend mode="normal" in="SourceGraphic" in2="BackgroundImageFix" result="shape"/>
<feColorMatrix in="SourceAlpha" type="matrix" values="0 0 0 0 0 0 0 0 0 0 0 0 0 0 0 0 0 0 127 0" result="hardAlpha"/>
<feOffset dy="4"/>
<feGaussianBlur stdDeviation="1"/>
<feComposite in2="hardAlpha" operator="arithmetic" k2="-1" k3="1"/>
<feColorMatrix type="matrix" values="0 0 0 0 1 0 0 0 0 1 0 0 0 0 1 0 0 0 0.64 0"/>
<feBlend mode="normal" in2="shape" result="effect1_innerShadow_145_58"/>
<feColorMatrix in="SourceAlpha" type="matrix" values="0 0 0 0 0 0 0 0 0 0 0 0 0 0 0 0 0 0 127 0" result="hardAlpha"/>
<feOffset dy="-4"/>
<feGaussianBlur stdDeviation="1"/>
<feComposite in2="hardAlpha" operator="arithmetic" k2="-1" k3="1"/>
<feColorMatrix type="matrix" values="0 0 0 0 1 0 0 0 0 1 0 0 0 0 1 0 0 0 0.64 0"/>
<feBlend mode="normal" in2="effect1_innerShadow_145_58" result="effect2_innerShadow_145_58"/>
</filter>
<filter id="filter1_ii_145_58" x="0.566406" y="287.526" width="3.51367" height="82.7065" filterUnits="userSpaceOnUse" color-interpolation-filters="sRGB">
<feFlood flood-opacity="0" result="BackgroundImageFix"/>
<feBlend mode="normal" in="SourceGraphic" in2="BackgroundImageFix" result="shape"/>
<feColorMatrix in="SourceAlpha" type="matrix" values="0 0 0 0 0 0 0 0 0 0 0 0 0 0 0 0 0 0 127 0" result="hardAlpha"/>
<feOffset dy="4"/>
<feGaussianBlur stdDeviation="1"/>
<feComposite in2="hardAlpha" operator="arithmetic" k2="-1" k3="1"/>
<feColorMatrix type="matrix" values="0 0 0 0 1 0 0 0 0 1 0 0 0 0 1 0 0 0 0.64 0"/>
<feBlend mode="normal" in2="shape" result="effect1_innerShadow_145_58"/>
<feColorMatrix in="SourceAlpha" type="matrix" values="0 0 0 0 0 0 0 0 0 0 0 0 0 0 0 0 0 0 127 0" result="hardAlpha"/>
<feOffset dy="-4"/>
<feGaussianBlur stdDeviation="1"/>
<feComposite in2="hardAlpha" operator="arithmetic" k2="-1" k3="1"/>
<feColorMatrix type="matrix" values="0 0 0 0 1 0 0 0 0 1 0 0 0 0 1 0 0 0 0.64 0"/>
<feBlend mode="normal" in2="effect1_innerShadow_145_58" result="effect2_innerShadow_145_58"/>
</filter>
<filter id="filter2_ii_145_58" x="552.914" y="313.528" width="3.51367" height="126.276" filterUnits="userSpaceOnUse" color-interpolation-filters="sRGB">
<feFlood flood-opacity="0" result="BackgroundImageFix"/>
<feBlend mode="normal" in="SourceGraphic" in2="BackgroundImageFix" result="shape"/>
<feColorMatrix in="SourceAlpha" type="matrix" values="0 0 0 0 0 0 0 0 0 0 0 0 0 0 0 0 0 0 127 0" result="hardAlpha"/>
<feOffset dy="4"/>
<feGaussianBlur stdDeviation="1"/>
<feComposite in2="hardAlpha" operator="arithmetic" k2="-1" k3="1"/>
<feColorMatrix type="matrix" values="0 0 0 0 1 0 0 0 0 1 0 0 0 0 1 0 0 0 0.64 0"/>
<feBlend mode="normal" in2="shape" result="effect1_innerShadow_145_58"/>
<feColorMatrix in="SourceAlpha" type="matrix" values="0 0 0 0 0 0 0 0 0 0 0 0 0 0 0 0 0 0 127 0" result="hardAlpha"/>
<feOffset dy="-4"/>
<feGaussianBlur stdDeviation="1"/>
<feComposite in2="hardAlpha" operator="arithmetic" k2="-1" k3="1"/>
<feColorMatrix type="matrix" values="0 0 0 0 1 0 0 0 0 1 0 0 0 0 1 0 0 0 0.64 0"/>
<feBlend mode="normal" in2="effect1_innerShadow_145_58" result="effect2_innerShadow_145_58"/>
</filter>
<filter id="filter3_ii_145_58" x="0.566406" y="383.802" width="3.51367" height="82.7065" filterUnits="userSpaceOnUse" color-interpolation-filters="sRGB">
<feFlood flood-opacity="0" result="BackgroundImageFix"/>
<feBlend mode="normal" in="SourceGraphic" in2="BackgroundImageFix" result="shape"/>
<feColorMatrix in="SourceAlpha" type="matrix" values="0 0 0 0 0 0 0 0 0 0 0 0 0 0 0 0 0 0 127 0" result="hardAlpha"/>
<feOffset dy="4"/>
<feGaussianBlur stdDeviation="1"/>
<feComposite in2="hardAlpha" operator="arithmetic" k2="-1" k3="1"/>
<feColorMatrix type="matrix" values="0 0 0 0 1 0 0 0 0 1 0 0 0 0 1 0 0 0 0.64 0"/>
<feBlend mode="normal" in2="shape" result="effect1_innerShadow_145_58"/>
<feColorMatrix in="SourceAlpha" type="matrix" values="0 0 0 0 0 0 0 0 0 0 0 0 0 0 0 0 0 0 127 0" result="hardAlpha"/>
<feOffset dy="-4"/>
<feGaussianBlur stdDeviation="1"/>
<feComposite in2="hardAlpha" operator="arithmetic" k2="-1" k3="1"/>
<feColorMatrix type="matrix" values="0 0 0 0 1 0 0 0 0 1 0 0 0 0 1 0 0 0 0.64 0"/>
<feBlend mode="normal" in2="effect1_innerShadow_145_58" result="effect2_innerShadow_145_58"/>
</filter>
<filter id="filter4_ii_145_58" x="4.08203" y="0.000244141" width="548.838" height="1130" filterUnits="userSpaceOnUse" color-interpolation-filters="sRGB">
<feFlood flood-opacity="0" result="BackgroundImageFix"/>
<feBlend mode="normal" in="SourceGraphic" in2="BackgroundImageFix" result="shape"/>
<feColorMatrix in="SourceAlpha" type="matrix" values="0 0 0 0 0 0 0 0 0 0 0 0 0 0 0 0 0 0 127 0" result="hardAlpha"/>
<feOffset/>
<feGaussianBlur stdDeviation="5"/>
<feComposite in2="hardAlpha" operator="arithmetic" k2="-1" k3="1"/>
<feColorMatrix type="matrix" values="0 0 0 0 1 0 0 0 0 1 0 0 0 0 1 0 0 0 0.88 0"/>
<feBlend mode="normal" in2="shape" result="effect1_innerShadow_145_58"/>
<feColorMatrix in="SourceAlpha" type="matrix" values="0 0 0 0 0 0 0 0 0 0 0 0 0 0 0 0 0 0 127 0" result="hardAlpha"/>
<feOffset/>
<feGaussianBlur stdDeviation="2.5"/>
<feComposite in2="hardAlpha" operator="arithmetic" k2="-1" k3="1"/>
<feColorMatrix type="matrix" values="0 0 0 0 0 0 0 0 0 0 0 0 0 0 0 0 0 0 1 0"/>
<feBlend mode="normal" in2="effect1_innerShadow_145_58" result="effect2_innerShadow_145_58"/>
</filter>
<filter id="filter5_iiii_145_58" x="0.566406" y="213.74" width="3.51367" height="44.7588" filterUnits="userSpaceOnUse" color-interpolation-filters="sRGB">
<feFlood flood-opacity="0" result="BackgroundImageFix"/>
<feBlend mode="normal" in="SourceGraphic" in2="BackgroundImageFix" result="shape"/>
<feColorMatrix in="SourceAlpha" type="matrix" values="0 0 0 0 0 0 0 0 0 0 0 0 0 0 0 0 0 0 127 0" result="hardAlpha"/>
<feOffset dy="4"/>
<feGaussianBlur stdDeviation="1"/>
<feComposite in2="hardAlpha" operator="arithmetic" k2="-1" k3="1"/>
<feColorMatrix type="matrix" values="0 0 0 0 1 0 0 0 0 1 0 0 0 0 1 0 0 0 0.08 0"/>
<feBlend mode="normal" in2="shape" result="effect1_innerShadow_145_58"/>
<feColorMatrix in="SourceAlpha" type="matrix" values="0 0 0 0 0 0 0 0 0 0 0 0 0 0 0 0 0 0 127 0" result="hardAlpha"/>
<feOffset dy="-4"/>
<feGaussianBlur stdDeviation="1"/>
<feComposite in2="hardAlpha" operator="arithmetic" k2="-1" k3="1"/>
<feColorMatrix type="matrix" values="0 0 0 0 1 0 0 0 0 1 0 0 0 0 1 0 0 0 0.08 0"/>
<feBlend mode="normal" in2="effect1_innerShadow_145_58" result="effect2_innerShadow_145_58"/>
<feColorMatrix in="SourceAlpha" type="matrix" values="0 0 0 0 0 0 0 0 0 0 0 0 0 0 0 0 0 0 127 0" result="hardAlpha"/>
<feOffset dy="1"/>
<feGaussianBlur stdDeviation="0.5"/>
<feComposite in2="hardAlpha" operator="arithmetic" k2="-1" k3="1"/>
<feColorMatrix type="matrix" values="0 0 0 0 1 0 0 0 0 1 0 0 0 0 1 0 0 0 0.32 0"/>
<feBlend mode="normal" in2="effect2_innerShadow_145_58" result="effect3_innerShadow_145_58"/>
<feColorMatrix in="SourceAlpha" type="matrix" values="0 0 0 0 0 0 0 0 0 0 0 0 0 0 0 0 0 0 127 0" result="hardAlpha"/>
<feOffset dy="-1"/>
<feGaussianBlur stdDeviation="0.5"/>
<feComposite in2="hardAlpha" operator="arithmetic" k2="-1" k3="1"/>
<feColorMatrix type="matrix" values="0 0 0 0 1 0 0 0 0 1 0 0 0 0 1 0 0 0 0.32 0"/>
<feBlend mode="normal" in2="effect3_innerShadow_145_58" result="effect4_innerShadow_145_58"/>
</filter>
<filter id="filter6_iiii_145_58" x="0.566406" y="287.526" width="3.51367" height="82.7065" filterUnits="userSpaceOnUse" color-interpolation-filters="sRGB">
<feFlood flood-opacity="0" result="BackgroundImageFix"/>
<feBlend mode="normal" in="SourceGraphic" in2="BackgroundImageFix" result="shape"/>
<feColorMatrix in="SourceAlpha" type="matrix" values="0 0 0 0 0 0 0 0 0 0 0 0 0 0 0 0 0 0 127 0" result="hardAlpha"/>
<feOffset dy="4"/>
<feGaussianBlur stdDeviation="1"/>
<feComposite in2="hardAlpha" operator="arithmetic" k2="-1" k3="1"/>
<feColorMatrix type="matrix" values="0 0 0 0 1 0 0 0 0 1 0 0 0 0 1 0 0 0 0.08 0"/>
<feBlend mode="normal" in2="shape" result="effect1_innerShadow_145_58"/>
<feColorMatrix in="SourceAlpha" type="matrix" values="0 0 0 0 0 0 0 0 0 0 0 0 0 0 0 0 0 0 127 0" result="hardAlpha"/>
<feOffset dy="-4"/>
<feGaussianBlur stdDeviation="1"/>
<feComposite in2="hardAlpha" operator="arithmetic" k2="-1" k3="1"/>
<feColorMatrix type="matrix" values="0 0 0 0 1 0 0 0 0 1 0 0 0 0 1 0 0 0 0.08 0"/>
<feBlend mode="normal" in2="effect1_innerShadow_145_58" result="effect2_innerShadow_145_58"/>
<feColorMatrix in="SourceAlpha" type="matrix" values="0 0 0 0 0 0 0 0 0 0 0 0 0 0 0 0 0 0 127 0" result="hardAlpha"/>
<feOffset dy="1"/>
<feGaussianBlur stdDeviation="0.5"/>
<feComposite in2="hardAlpha" operator="arithmetic" k2="-1" k3="1"/>
<feColorMatrix type="matrix" values="0 0 0 0 1 0 0 0 0 1 0 0 0 0 1 0 0 0 0.32 0"/>
<feBlend mode="normal" in2="effect2_innerShadow_145_58" result="effect3_innerShadow_145_58"/>
<feColorMatrix in="SourceAlpha" type="matrix" values="0 0 0 0 0 0 0 0 0 0 0 0 0 0 0 0 0 0 127 0" result="hardAlpha"/>
<feOffset dy="-1"/>
<feGaussianBlur stdDeviation="0.5"/>
<feComposite in2="hardAlpha" operator="arithmetic" k2="-1" k3="1"/>
<feColorMatrix type="matrix" values="0 0 0 0 1 0 0 0 0 1 0 0 0 0 1 0 0 0 0.32 0"/>
<feBlend mode="normal" in2="effect3_innerShadow_145_58" result="effect4_innerShadow_145_58"/>
</filter>
<filter id="filter7_iiii_145_58" x="552.914" y="313.528" width="3.51367" height="126.276" filterUnits="userSpaceOnUse" color-interpolation-filters="sRGB">
<feFlood flood-opacity="0" result="BackgroundImageFix"/>
<feBlend mode="normal" in="SourceGraphic" in2="BackgroundImageFix" result="shape"/>
<feColorMatrix in="SourceAlpha" type="matrix" values="0 0 0 0 0 0 0 0 0 0 0 0 0 0 0 0 0 0 127 0" result="hardAlpha"/>
<feOffset dy="4"/>
<feGaussianBlur stdDeviation="1"/>
<feComposite in2="hardAlpha" operator="arithmetic" k2="-1" k3="1"/>
<feColorMatrix type="matrix" values="0 0 0 0 1 0 0 0 0 1 0 0 0 0 1 0 0 0 0.08 0"/>
<feBlend mode="normal" in2="shape" result="effect1_innerShadow_145_58"/>
<feColorMatrix in="SourceAlpha" type="matrix" values="0 0 0 0 0 0 0 0 0 0 0 0 0 0 0 0 0 0 127 0" result="hardAlpha"/>
<feOffset dy="-4"/>
<feGaussianBlur stdDeviation="1"/>
<feComposite in2="hardAlpha" operator="arithmetic" k2="-1" k3="1"/>
<feColorMatrix type="matrix" values="0 0 0 0 1 0 0 0 0 1 0 0 0 0 1 0 0 0 0.08 0"/>
<feBlend mode="normal" in2="effect1_innerShadow_145_58" result="effect2_innerShadow_145_58"/>
<feColorMatrix in="SourceAlpha" type="matrix" values="0 0 0 0 0 0 0 0 0 0 0 0 0 0 0 0 0 0 127 0" result="hardAlpha"/>
<feOffset dy="1"/>
<feGaussianBlur stdDeviation="0.5"/>
<feComposite in2="hardAlpha" operator="arithmetic" k2="-1" k3="1"/>
<feColorMatrix type="matrix" values="0 0 0 0 1 0 0 0 0 1 0 0 0 0 1 0 0 0 0.32 0"/>
<feBlend mode="normal" in2="effect2_innerShadow_145_58" result="effect3_innerShadow_145_58"/>
<feColorMatrix in="SourceAlpha" type="matrix" values="0 0 0 0 0 0 0 0 0 0 0 0 0 0 0 0 0 0 127 0" result="hardAlpha"/>
<feOffset dy="-1"/>
<feGaussianBlur stdDeviation="0.5"/>
<feComposite in2="hardAlpha" operator="arithmetic" k2="-1" k3="1"/>
<feColorMatrix type="matrix" values="0 0 0 0 1 0 0 0 0 1 0 0 0 0 1 0 0 0 0.32 0"/>
<feBlend mode="normal" in2="effect3_innerShadow_145_58" result="effect4_innerShadow_145_58"/>
</filter>
<filter id="filter8_iiii_145_58" x="0.566406" y="383.802" width="3.51367" height="82.7065" filterUnits="userSpaceOnUse" color-interpolation-filters="sRGB">
<feFlood flood-opacity="0" result="BackgroundImageFix"/>
<feBlend mode="normal" in="SourceGraphic" in2="BackgroundImageFix" result="shape"/>
<feColorMatrix in="SourceAlpha" type="matrix" values="0 0 0 0 0 0 0 0 0 0 0 0 0 0 0 0 0 0 127 0" result="hardAlpha"/>
<feOffset dy="4"/>
<feGaussianBlur stdDeviation="1"/>
<feComposite in2="hardAlpha" operator="arithmetic" k2="-1" k3="1"/>
<feColorMatrix type="matrix" values="0 0 0 0 1 0 0 0 0 1 0 0 0 0 1 0 0 0 0.08 0"/>
<feBlend mode="normal" in2="shape" result="effect1_innerShadow_145_58"/>
<feColorMatrix in="SourceAlpha" type="matrix" values="0 0 0 0 0 0 0 0 0 0 0 0 0 0 0 0 0 0 127 0" result="hardAlpha"/>
<feOffset dy="-4"/>
<feGaussianBlur stdDeviation="1"/>
<feComposite in2="hardAlpha" operator="arithmetic" k2="-1" k3="1"/>
<feColorMatrix type="matrix" values="0 0 0 0 1 0 0 0 0 1 0 0 0 0 1 0 0 0 0.08 0"/>
<feBlend mode="normal" in2="effect1_innerShadow_145_58" result="effect2_innerShadow_145_58"/>
<feColorMatrix in="SourceAlpha" type="matrix" values="0 0 0 0 0 0 0 0 0 0 0 0 0 0 0 0 0 0 127 0" result="hardAlpha"/>
<feOffset dy="1"/>
<feGaussianBlur stdDeviation="0.5"/>
<feComposite in2="hardAlpha" operator="arithmetic" k2="-1" k3="1"/>
<feColorMatrix type="matrix" values="0 0 0 0 1 0 0 0 0 1 0 0 0 0 1 0 0 0 0.32 0"/>
<feBlend mode="normal" in2="effect2_innerShadow_145_58" result="effect3_innerShadow_145_58"/>
<feColorMatrix in="SourceAlpha" type="matrix" values="0 0 0 0 0 0 0 0 0 0 0 0 0 0 0 0 0 0 127 0" result="hardAlpha"/>
<feOffset dy="-1"/>
<feGaussianBlur stdDeviation="0.5"/>
<feComposite in2="hardAlpha" operator="arithmetic" k2="-1" k3="1"/>
<feColorMatrix type="matrix" values="0 0 0 0 1 0 0 0 0 1 0 0 0 0 1 0 0 0 0.32 0"/>
<feBlend mode="normal" in2="effect3_innerShadow_145_58" result="effect4_innerShadow_145_58"/>
</filter>
<filter id="filter9_i_145_58" x="251.441" y="33.7314" width="54.8125" height="9.83838" filterUnits="userSpaceOnUse" color-interpolation-filters="sRGB">
<feFlood flood-opacity="0" result="BackgroundImageFix"/>
<feBlend mode="normal" in="SourceGraphic" in2="BackgroundImageFix" result="shape"/>
<feColorMatrix in="SourceAlpha" type="matrix" values="0 0 0 0 0 0 0 0 0 0 0 0 0 0 0 0 0 0 127 0" result="hardAlpha"/>
<feOffset/>
<feGaussianBlur stdDeviation="4"/>
<feComposite in2="hardAlpha" operator="arithmetic" k2="-1" k3="1"/>
<feColorMatrix type="matrix" values="0 0 0 0 0 0 0 0 0 0 0 0 0 0 0 0 0 0 0.48 0"/>
<feBlend mode="normal" in2="shape" result="effect1_innerShadow_145_58"/>
</filter>
<filter id="filter10_f_145_58" x="250.441" y="32.7314" width="56.8125" height="11.8384" filterUnits="userSpaceOnUse" color-interpolation-filters="sRGB">
<feFlood flood-opacity="0" result="BackgroundImageFix"/>
<feBlend mode="normal" in="SourceGraphic" in2="BackgroundImageFix" result="shape"/>
<feGaussianBlur stdDeviation="0.5" result="effect1_foregroundBlur_145_58"/>
</filter>
<linearGradient id="paint0_linear_145_58" x1="0.56836" y1="128.952" x2="12.5149" y2="128.952" gradientUnits="userSpaceOnUse">
<stop offset="0.109375" stop-color="#D1D1D1"/>
<stop offset="0.317708" stop-color="#E3E3E3"/>
<stop offset="0.552083" stop-color="#D2D2D2"/>
<stop offset="0.807292" stop-color="#E6E6E6"/>
</linearGradient>
<linearGradient id="paint1_linear_145_58" x1="0.56836" y1="1001.75" x2="12.5149" y2="1001.75" gradientUnits="userSpaceOnUse">
<stop offset="0.109375" stop-color="#D1D1D1"/>
<stop offset="0.317708" stop-color="#E3E3E3"/>
<stop offset="0.552083" stop-color="#D2D2D2"/>
<stop offset="0.807292" stop-color="#E6E6E6"/>
</linearGradient>
<linearGradient id="paint2_linear_145_58" x1="544.488" y1="128.952" x2="556.435" y2="128.952" gradientUnits="userSpaceOnUse">
<stop offset="0.0988321" stop-color="#E6E6E6"/>
<stop offset="0.368786" stop-color="#D2D2D2"/>
<stop offset="0.624532" stop-color="#E3E3E3"/>
<stop offset="0.798581" stop-color="#D1D1D1"/>
</linearGradient>
<linearGradient id="paint3_linear_145_58" x1="544.488" y1="1001.75" x2="556.435" y2="1001.75" gradientUnits="userSpaceOnUse">
<stop offset="0.0988321" stop-color="#E6E6E6"/>
<stop offset="0.368786" stop-color="#D2D2D2"/>
<stop offset="0.624532" stop-color="#E3E3E3"/>
<stop offset="0.798581" stop-color="#D1D1D1"/>
</linearGradient>
<linearGradient id="paint4_linear_145_58" x1="429.234" y1="1.75709" x2="441.181" y2="1.75709" gradientUnits="userSpaceOnUse">
<stop offset="0.238306" stop-color="#D1D1D1"/>
<stop offset="0.416703" stop-color="#E3E3E3"/>
<stop offset="0.700226" stop-color="#D2D2D2"/>
<stop offset="0.926408" stop-color="#E6E6E6"/>
</linearGradient>
<linearGradient id="paint5_linear_145_58" x1="137.602" y1="1126.14" x2="149.548" y2="1126.14" gradientUnits="userSpaceOnUse">
<stop offset="0.0988321" stop-color="#E6E6E6"/>
<stop offset="0.368786" stop-color="#D2D2D2"/>
<stop offset="0.624532" stop-color="#E3E3E3"/>
<stop offset="0.798581" stop-color="#D1D1D1"/>
</linearGradient>
<linearGradient id="paint6_linear_145_58" x1="44.0639" y1="19.9204" x2="507.338" y2="1095.33" gradientUnits="userSpaceOnUse">
<stop stop-color="white" stop-opacity="0.16"/>
<stop offset="1" stop-color="white" stop-opacity="0.05"/>
</linearGradient>
<linearGradient id="paint7_linear_145_58" x1="0.566406" y1="235.768" x2="4.08009" y2="235.768" gradientUnits="userSpaceOnUse">
<stop stop-opacity="0"/>
<stop offset="0.333333" stop-color="#D0D0D0" stop-opacity="0.42"/>
<stop offset="1" stop-opacity="0.24"/>
</linearGradient>
<linearGradient id="paint8_linear_145_58" x1="0.566406" y1="328.201" x2="4.08009" y2="328.201" gradientUnits="userSpaceOnUse">
<stop stop-opacity="0"/>
<stop offset="0.333333" stop-color="#D0D0D0" stop-opacity="0.42"/>
<stop offset="1" stop-opacity="0.24"/>
</linearGradient>
<linearGradient id="paint9_linear_145_58" x1="552.914" y1="375.612" x2="556.428" y2="375.612" gradientUnits="userSpaceOnUse">
<stop stop-opacity="0.24"/>
<stop offset="0.573835" stop-color="#D0D0D0" stop-opacity="0.42"/>
<stop offset="1" stop-opacity="0"/>
</linearGradient>
<linearGradient id="paint10_linear_145_58" x1="0.566406" y1="424.476" x2="4.08009" y2="424.476" gradientUnits="userSpaceOnUse">
<stop stop-opacity="0"/>
<stop offset="0.333333" stop-color="#D0D0D0" stop-opacity="0.42"/>
<stop offset="1" stop-opacity="0.24"/>
</linearGradient>
<linearGradient id="paint11_linear_145_58" x1="278.5" y1="0.000244141" x2="278.5" y2="1130" gradientUnits="userSpaceOnUse">
<stop stop-color="white" stop-opacity="0.64"/>
<stop offset="1" stop-color="white" stop-opacity="0.32"/>
</linearGradient>
<linearGradient id="paint12_linear_145_58" x1="0.56836" y1="128.952" x2="12.5149" y2="128.952" gradientUnits="userSpaceOnUse">
<stop offset="0.30159" stop-color="#8F8F8F"/>
<stop offset="0.489543" stop-color="#525252"/>
<stop offset="0.827659" stop-color="#141414"/>
</linearGradient>
<linearGradient id="paint13_linear_145_58" x1="0.56836" y1="1001.75" x2="12.5149" y2="1001.75" gradientUnits="userSpaceOnUse">
<stop offset="0.285661" stop-color="#8F8F8F"/>
<stop offset="0.476801" stop-color="#525252"/>
<stop offset="0.827659" stop-color="#141414"/>
</linearGradient>
<linearGradient id="paint14_linear_145_58" x1="544.488" y1="128.952" x2="556.435" y2="128.952" gradientUnits="userSpaceOnUse">
<stop offset="0.088176" stop-color="#141414"/>
<stop offset="0.514281" stop-color="#525252"/>
<stop offset="0.714084" stop-color="#8F8F8F"/>
</linearGradient>
<linearGradient id="paint15_linear_145_58" x1="544.488" y1="1001.75" x2="556.435" y2="1001.75" gradientUnits="userSpaceOnUse">
<stop offset="0.088176" stop-color="#141414"/>
<stop offset="0.514281" stop-color="#525252"/>
<stop offset="0.714084" stop-color="#8F8F8F"/>
</linearGradient>
<linearGradient id="paint16_linear_145_58" x1="429.234" y1="1.75709" x2="441.181" y2="1.75709" gradientUnits="userSpaceOnUse">
<stop offset="0.298754" stop-color="#8F8F8F"/>
<stop offset="0.481514" stop-color="#525252"/>
<stop offset="0.976264" stop-color="#141414"/>
</linearGradient>
<linearGradient id="paint17_linear_145_58" x1="137.602" y1="1126.14" x2="149.548" y2="1126.14" gradientUnits="userSpaceOnUse">
<stop offset="0.122861"/>
<stop offset="0.584624" stop-color="#292929"/>
<stop offset="0.87589" stop-color="#7A7A7A"/>
</linearGradient>
<linearGradient id="paint18_linear_145_58" x1="44.0639" y1="19.9204" x2="507.338" y2="1095.33" gradientUnits="userSpaceOnUse">
<stop stop-color="white" stop-opacity="0.16"/>
<stop offset="1" stop-color="white" stop-opacity="0.05"/>
</linearGradient>
<linearGradient id="paint19_linear_145_58" x1="0.566406" y1="235.768" x2="4.08009" y2="235.768" gradientUnits="userSpaceOnUse">
<stop stop-color="white" stop-opacity="0.08"/>
<stop offset="0.276042" stop-color="white" stop-opacity="0.24"/>
<stop offset="1" stop-color="white" stop-opacity="0"/>
</linearGradient>
<linearGradient id="paint20_linear_145_58" x1="0.566406" y1="328.201" x2="4.08009" y2="328.201" gradientUnits="userSpaceOnUse">
<stop stop-color="white" stop-opacity="0.08"/>
<stop offset="0.276042" stop-color="white" stop-opacity="0.24"/>
<stop offset="1" stop-color="white" stop-opacity="0"/>
</linearGradient>
<linearGradient id="paint21_linear_145_58" x1="552.914" y1="375.612" x2="556.428" y2="375.612" gradientUnits="userSpaceOnUse">
<stop stop-color="white" stop-opacity="0"/>
<stop offset="0.630208" stop-color="white" stop-opacity="0.24"/>
<stop offset="1" stop-color="white" stop-opacity="0.08"/>
</linearGradient>
<linearGradient id="paint22_linear_145_58" x1="0.566406" y1="424.476" x2="4.08009" y2="424.476" gradientUnits="userSpaceOnUse">
<stop stop-color="white" stop-opacity="0.08"/>
<stop offset="0.276042" stop-color="white" stop-opacity="0.24"/>
<stop offset="1" stop-color="white" stop-opacity="0"/>
</linearGradient>
<linearGradient id="paint23_linear_145_58" x1="278.848" y1="33.7314" x2="278.848" y2="43.5698" gradientUnits="userSpaceOnUse">
<stop/>
<stop offset="0.483028" stop-color="#484848"/>
<stop offset="1"/>
</linearGradient>
<radialGradient id="paint24_radial_145_58" cx="0" cy="0" r="1" gradientUnits="userSpaceOnUse" gradientTransform="translate(329.091 43.2188) rotate(-127.694) scale(9.76904)">
<stop stop-color="#242424"/>
<stop offset="1" stop-color="#161616"/>
</radialGradient>
<radialGradient id="paint25_radial_145_58" cx="0" cy="0" r="1" gradientUnits="userSpaceOnUse" gradientTransform="translate(327.334 38.651) rotate(90) scale(9.83831)">
<stop offset="0.463542" stop-opacity="0.25"/>
<stop offset="0.645833" stop-opacity="0"/>
</radialGradient>
<linearGradient id="paint26_linear_145_58" x1="327.339" y1="33.7314" x2="327.339" y2="43.5698" gradientUnits="userSpaceOnUse">
<stop stop-color="#0B528D"/>
<stop offset="0.276042" stop-color="#3625AF"/>
<stop offset="0.510417" stop-color="#070D17"/>
<stop offset="0.734375" stop-color="#16618F"/>
<stop offset="1" stop-color="#021762"/>
</linearGradient>
<radialGradient id="paint27_radial_145_58" cx="0" cy="0" r="1" gradientUnits="userSpaceOnUse" gradientTransform="translate(323.474 37.5965) rotate(58.3925) scale(5.3634)">
<stop stop-color="#070D17"/>
<stop offset="1" stop-color="#070D17" stop-opacity="0"/>
</radialGradient>
<radialGradient id="paint28_radial_145_58" cx="0" cy="0" r="1" gradientUnits="userSpaceOnUse" gradientTransform="translate(328.042 39.3533) rotate(106.699) scale(3.66839)">
<stop offset="0.146834" stop-color="#070D17"/>
<stop offset="1" stop-color="#070D17" stop-opacity="0"/>
</radialGradient>
<radialGradient id="paint29_radial_145_58" cx="0" cy="0" r="1" gradientUnits="userSpaceOnUse" gradientTransform="translate(328.745 37.5965) rotate(128.66) scale(2.24985)">
<stop stop-color="#6356D7"/>
<stop offset="1" stop-color="#15368A" stop-opacity="0"/>
</radialGradient>
<radialGradient id="paint30_radial_145_58" cx="0" cy="0" r="1" gradientUnits="userSpaceOnUse" gradientTransform="translate(327.339 38.6506) rotate(90) scale(4.91915)">
<stop offset="0.828125" stop-opacity="0"/>
<stop offset="1" stop-opacity="0.85"/>
</radialGradient>
</defs>
</svg>
